<svg xmlns="http://www.w3.org/2000/svg" viewBox="0 0 16 16" width="16" height="16" shape-rendering="crispEdges"><rect x="6" y="1" width="4" height="1" fill="#141821"/><rect x="6" y="2" width="1" height="1" fill="#141821"/><rect x="7" y="2" width="2" height="1" fill="#3a4252"/><rect x="9" y="2" width="1" height="1" fill="#141821"/><rect x="5" y="3" width="6" height="1" fill="#141821"/><rect x="4" y="4" width="1" height="1" fill="#141821"/><rect x="5" y="4" width="2" height="1" fill="#a2d9fb"/><rect x="7" y="4" width="3" height="1" fill="#3fa6e8"/><rect x="10" y="4" width="1" height="1" fill="#2870b2"/><rect x="11" y="4" width="1" height="1" fill="#141821"/><rect x="3" y="5" width="1" height="1" fill="#141821"/><rect x="4" y="5" width="1" height="1" fill="#a2d9fb"/><rect x="5" y="5" width="6" height="1" fill="#3fa6e8"/><rect x="11" y="5" width="1" height="1" fill="#2870b2"/><rect x="12" y="5" width="1" height="1" fill="#141821"/><rect x="3" y="6" width="1" height="1" fill="#141821"/><rect x="4" y="6" width="1" height="1" fill="#eef3f8"/><rect x="5" y="6" width="6" height="1" fill="#3fa6e8"/><rect x="11" y="6" width="1" height="1" fill="#2870b2"/><rect x="12" y="6" width="1" height="1" fill="#141821"/><rect x="3" y="7" width="1" height="1" fill="#141821"/><rect x="4" y="7" width="1" height="1" fill="#a2d9fb"/><rect x="5" y="7" width="6" height="1" fill="#3fa6e8"/><rect x="11" y="7" width="1" height="1" fill="#2870b2"/><rect x="12" y="7" width="1" height="1" fill="#141821"/><rect x="3" y="8" width="1" height="1" fill="#141821"/><rect x="4" y="8" width="8" height="1" fill="#b4c2d3"/><rect x="12" y="8" width="1" height="1" fill="#141821"/><rect x="3" y="9" width="1" height="1" fill="#141821"/><rect x="4" y="9" width="1" height="1" fill="#a2d9fb"/><rect x="5" y="9" width="6" height="1" fill="#3fa6e8"/><rect x="11" y="9" width="1" height="1" fill="#2870b2"/><rect x="12" y="9" width="1" height="1" fill="#141821"/><rect x="3" y="10" width="1" height="1" fill="#141821"/><rect x="4" y="10" width="1" height="1" fill="#a2d9fb"/><rect x="5" y="10" width="6" height="1" fill="#3fa6e8"/><rect x="11" y="10" width="1" height="1" fill="#2870b2"/><rect x="12" y="10" width="1" height="1" fill="#141821"/><rect x="3" y="11" width="1" height="1" fill="#141821"/><rect x="4" y="11" width="1" height="1" fill="#a2d9fb"/><rect x="5" y="11" width="6" height="1" fill="#3fa6e8"/><rect x="11" y="11" width="1" height="1" fill="#2870b2"/><rect x="12" y="11" width="1" height="1" fill="#141821"/><rect x="3" y="12" width="1" height="1" fill="#141821"/><rect x="4" y="12" width="1" height="1" fill="#a2d9fb"/><rect x="5" y="12" width="6" height="1" fill="#3fa6e8"/><rect x="11" y="12" width="1" height="1" fill="#2870b2"/><rect x="12" y="12" width="1" height="1" fill="#141821"/><rect x="3" y="13" width="1" height="1" fill="#141821"/><rect x="4" y="13" width="8" height="1" fill="#2870b2"/><rect x="12" y="13" width="1" height="1" fill="#141821"/><rect x="4" y="14" width="8" height="1" fill="#141821"/></svg>
