<svg xmlns="http://www.w3.org/2000/svg" viewBox="0 0 16 16" width="16" height="16" shape-rendering="crispEdges"><rect x="7" y="0" width="2" height="1" fill="#f5b83d"/><rect x="7" y="1" width="2" height="1" fill="#6b7a8f"/><rect x="6" y="2" width="1" height="1" fill="#6b7a8f"/><rect x="9" y="2" width="1" height="1" fill="#6b7a8f"/><rect x="6" y="3" width="4" height="1" fill="#6b7a8f"/><rect x="5" y="4" width="1" height="1" fill="#6b7a8f"/><rect x="7" y="4" width="2" height="1" fill="#6b7a8f"/><rect x="10" y="4" width="1" height="1" fill="#6b7a8f"/><rect x="5" y="5" width="1" height="1" fill="#6b7a8f"/><rect x="10" y="5" width="1" height="1" fill="#6b7a8f"/><rect x="4" y="6" width="8" height="1" fill="#6b7a8f"/><rect x="4" y="7" width="1" height="1" fill="#6b7a8f"/><rect x="6" y="7" width="1" height="1" fill="#6b7a8f"/><rect x="9" y="7" width="1" height="1" fill="#6b7a8f"/><rect x="11" y="7" width="1" height="1" fill="#6b7a8f"/><rect x="3" y="8" width="1" height="1" fill="#6b7a8f"/><rect x="7" y="8" width="2" height="1" fill="#6b7a8f"/><rect x="12" y="8" width="1" height="1" fill="#6b7a8f"/><rect x="3" y="9" width="1" height="1" fill="#6b7a8f"/><rect x="6" y="9" width="1" height="1" fill="#6b7a8f"/><rect x="9" y="9" width="1" height="1" fill="#6b7a8f"/><rect x="12" y="9" width="1" height="1" fill="#6b7a8f"/><rect x="2" y="10" width="12" height="1" fill="#6b7a8f"/><rect x="2" y="11" width="1" height="1" fill="#6b7a8f"/><rect x="13" y="11" width="1" height="1" fill="#6b7a8f"/><rect x="1" y="12" width="14" height="1" fill="#141821"/><rect x="1" y="13" width="1" height="1" fill="#141821"/><rect x="2" y="13" width="1" height="1" fill="#e2f6fb"/><rect x="3" y="13" width="10" height="1" fill="#9ed3e2"/><rect x="13" y="13" width="1" height="1" fill="#5f99ab"/><rect x="14" y="13" width="1" height="1" fill="#141821"/><rect x="1" y="14" width="14" height="1" fill="#141821"/></svg>
